<?xml version="1.0" encoding="UTF-8"?>
<svg width="460px" height="52px" viewBox="0 0 460 52" version="1.1" xmlns="http://www.w3.org/2000/svg" xmlns:xlink="http://www.w3.org/1999/xlink">
    <!-- Generator: Sketch 51.1 (57501) - http://www.bohemiancoding.com/sketch -->
    <title>Group 5</title>
    <desc>Created with Sketch.</desc>
    <defs></defs>
    <g id="Page-1" stroke="none" stroke-width="1" fill="none" fill-rule="evenodd">
        <g id="Desktop-HD" transform="translate(-781.000000, -667.000000)">
            <g id="Group-5" transform="translate(781.000000, 667.000000)">
                <g id="Group-Copy-2" transform="translate(0.000000, 9.000000)" fill="#525252">
                    <path d="M71.6709004,3.05540187 L71.6709004,16.1757338 L90.5915174,16.1757338 L90.5915174,18.5740741 L71.6709004,18.5740741 L71.6709004,33.4814046 L69.1356317,33.4814046 L69.1356317,0.515982788 L91.2488093,0.515982788 L91.2488093,3.05540187 L71.6709004,3.05540187 Z M173.197721,20.9724143 L173.197721,18.5740741 L175.87775,18.5740741 C181.605579,18.5740741 184.140848,15.3292608 184.187798,10.7206854 C184.234747,6.86453051 181.605579,2.86729676 176.159447,2.86729676 L164.234293,2.86729676 L164.234293,17.6283233 L164.231685,17.6283233 L164.231685,22.8534655 L164.234293,22.8534655 L164.234293,33.4343784 L161.699025,33.4343784 L161.699025,0.515982788 L176.159447,0.515982788 C183.295759,0.515982788 186.910864,5.64184724 186.957814,10.7677117 C187.004763,16.1287075 183.483556,20.8313355 176.300295,20.8313355 L187.896802,33.4343784 L184.563393,33.4343784 L173.201633,20.9724143 L173.197721,20.9724143 Z M232.488319,4.98347933 L231.032887,6.58237283 C228.168973,3.76079607 224.178272,2.35000768 220.469267,2.35000768 C210.844636,2.35000768 205.914947,9.40394959 205.961896,17.0222069 C205.961896,24.781543 210.891585,31.4592746 220.469267,31.4592746 C223.990474,31.4592746 227.652529,30.2365914 230.469494,27.650146 L230.469494,18.4329952 L219.013835,18.4329952 L219.013835,16.2227601 L232.863915,16.2227601 L232.863915,28.5436453 C229.436607,31.9765637 225.352007,33.8576149 220.469267,33.8576149 C209.295305,33.8576149 203.520526,26.0512525 203.520526,17.0692331 C203.473577,6.77047795 210.469041,0.0457199939 220.469267,0.0457199939 C224.788614,0.0457199939 229.15491,1.69163977 232.488319,4.98347933 Z M255.248356,2.91432304 L255.248356,15.705471 L274.497619,15.705471 L274.497619,18.0097587 L255.248356,18.0097587 L255.248356,30.9890118 L276,30.9890118 L276,33.4343784 L252.760036,33.4343784 L252.760036,0.515982788 L275.436607,0.515982788 L275.436607,2.91432304 L255.248356,2.91432304 Z M126.030506,0 C137.110569,0 142.650601,8.13554633 142.603652,17.0235131 C142.556702,25.6763485 137.06362,34 126.030506,34 C114.997392,34 109.45736,25.6293223 109.45736,16.9294606 C109.45736,8.08852006 114.950442,0 126.030506,0 Z M126.030506,2.35131397 C135.46734,2.35131397 140.162282,9.3582296 140.162282,16.9764869 C140.162282,24.406639 135.42039,31.648686 126.030506,31.648686 C116.687571,31.648686 111.992629,24.406639 111.945679,16.9764869 C111.89873,9.21715076 116.593672,2.35131397 126.030506,2.35131397 Z M6.15037423,33.4343784 L0,33.4343784 L0,6.00238205 L6.15037423,0.515982788 L6.15037423,33.4343784 Z M34.36176,33.4343784 L34.36176,6.15913631 L23.9389884,6.15913631 L23.9389884,0.515982788 L50.9818553,0.515982788 L48.2054334,6.15913631 L40.5590837,6.15913631 L40.5590837,33.4343784 L34.36176,33.4343784 Z" id="ITFORGE-Copy-2"></path>
                </g>
                <path d="M339.05,51.15 L335.15,51.15 C334.199995,51.15 333.362504,50.9000025 332.6375,50.4 C331.912496,49.8999975 331.350002,49.2250042 330.95,48.375 L311,0.075 L318.65,0.075 C319.600005,0.075 320.449996,0.337497375 321.2,0.8625 C321.950004,1.38750262 322.499998,2.07499575 322.85,2.925 L337.025,39.675 L351.35,2.925 C351.700002,2.07499575 352.249996,1.38750262 353,0.8625 C353.750004,0.337497375 354.599995,0.075 355.55,0.075 L363.2,0.075 L343.25,48.375 C342.849998,49.2250042 342.275004,49.8999975 341.525,50.4 C340.774996,50.9000025 339.950005,51.15 339.05,51.15 Z M379.554082,46.425 L379.554082,0.075 L384.579082,0.075 C385.879088,0.075 386.954077,0.49999575 387.804082,1.35 C388.654086,2.20000425 389.079082,3.2749935 389.079082,4.575 L389.079082,50.925 L384.054082,50.925 C382.804075,50.925 381.741586,50.4875044 380.866582,49.6125 C379.991577,48.7374956 379.554082,47.6750062 379.554082,46.425 Z M459.208163,50.925 L451.933163,50.925 C450.933158,50.925 450.045667,50.6750025 449.270663,50.175 C448.495659,49.6749975 447.908165,49.0000042 447.508163,48.15 L443.233163,38.325 L419.083163,38.325 L414.733163,48.15 C414.383161,49.0000042 413.820667,49.6749975 413.045663,50.175 C412.270659,50.6750025 411.383168,50.925 410.383163,50.925 L403.108163,50.925 L425.158163,1.8 C425.408164,1.24999725 425.770661,0.812501625 426.245663,0.4875 C426.720665,0.162498375 427.25816,0 427.858163,0 L434.458163,0 C435.058166,0 435.595661,0.162498375 436.070663,0.4875 C436.545665,0.812501625 436.908162,1.24999725 437.158163,1.8 L459.208163,50.925 Z M439.333163,29.4 L431.158163,10.65 L422.983163,29.4 L439.333163,29.4 Z" id="VIA" fill="#6D00ED"></path>
            </g>
        </g>
    </g>
</svg>